<svg xmlns="http://www.w3.org/2000/svg" viewBox="0 0 64 64">
  <rect width="64" height="64" rx="16" fill="#11C9A7"/>
  <path d="M32 22a10 10 0 1 0 0 20 10 10 0 0 0 0-20Zm21 11-4.1-.9a17.4 17.4 0 0 0-1.5-3.7l2.3-3.6-4.2-4.2-3.6 2.3a17.4 17.4 0 0 0-3.7-1.5L37 11h-6l-.9 4.1a17.4 17.4 0 0 0-3.7 1.5l-3.6-2.3-4.2 4.2 2.3 3.6a17.4 17.4 0 0 0-1.5 3.7L11 27v6l4.1.9a17.4 17.4 0 0 0 1.5 3.7l-2.3 3.6 4.2 4.2 3.6-2.3a17.4 17.4 0 0 0 3.7 1.5L31 53h6l.9-4.1a17.4 17.4 0 0 0 3.7-1.5l3.6 2.3 4.2-4.2-2.3-3.6a17.4 17.4 0 0 0 1.5-3.7L53 33v-6Z" fill="#fff"/>
</svg>